<svg width="11" height="17" viewBox="0 0 11 17" fill="none" xmlns="http://www.w3.org/2000/svg">
<path fill-rule="evenodd" clip-rule="evenodd" d="M10.4293 7.33804C10.8072 7.60673 11 7.93904 11 8.32453V8.5159C10.9957 8.81366 10.8901 9.2326 10.4293 9.58299L10.4277 9.58409C10.2057 9.74476 7.94639 11.33 5.5544 13.0091C3.21439 14.6514 0.577688 16.5021 0.255544 16.733V17L0.099063 16.7335C0.0914832 16.7198 0.0844569 16.7083 0.0925782 16.6896H0.0876976V15.2957C0.0876976 14.8203 0.139679 14.5916 0.662148 14.239C1.09853 13.955 8.00594 9.10374 8.92256 8.46107C8.01298 7.82114 1.19436 3.0269 0.727115 2.68034L0.671893 2.63977C0.326468 2.38643 0.0546823 2.18683 0.0546823 1.65931V0L0.185697 0.0932198C0.593385 0.380556 10.1624 7.1357 10.4293 7.33804ZM4.44828 9.2145C4.21168 9.2145 3.97725 9.13115 3.73037 8.965C3.13264 8.56087 0.0665783 6.40146 0.0357174 6.37952L0 6.3543V5.2894C0 5.04484 0.103957 4.85127 0.286415 4.7575C0.481867 4.6566 0.72604 4.6895 0.939359 4.84633C1.40065 5.14683 5.86193 8.2823 5.90687 8.31466L6.00811 8.38539L5.90524 8.45504C5.90524 8.45504 5.60368 8.65847 5.26909 8.89536C4.98268 9.10812 4.71466 9.2145 4.44828 9.2145Z" fill="#356AE6"/>
</svg>
