<svg width="14" height="15" viewBox="0 0 14 15" fill="none" xmlns="http://www.w3.org/2000/svg">
<path fill-rule="evenodd" clip-rule="evenodd" d="M7 0.5C3.129 0.5 0 3.629 0 7.5C0 11.371 3.129 14.5 7 14.5C10.871 14.5 14 11.371 14 7.5C14 3.629 10.871 0.5 7 0.5ZM8.813 4.7L7 6.513L5.187 4.7L4.2 5.687L6.013 7.5L4.2 9.313L5.187 10.3L7 8.487L8.813 10.3L9.8 9.313L7.987 7.5L9.8 5.687L8.813 4.7ZM1.4 7.5C1.4 10.587 3.913 13.1 7 13.1C10.087 13.1 12.6 10.587 12.6 7.5C12.6 4.413 10.087 1.9 7 1.9C3.913 1.9 1.4 4.413 1.4 7.5Z" fill="#9FB4B4"/>
</svg>
