<svg width="17" height="17" viewBox="0 0 17 17" fill="none" xmlns="http://www.w3.org/2000/svg">
<path d="M14.7085 0H11.7942C11.0893 0 10.5106 0.579125 10.5106 1.2846V5.05418H6.29163C5.60775 5.05418 5.05014 5.61225 5.05014 6.30719V10.5295H1.25201C0.557619 10.5295 0 11.0876 0 11.7826V14.7308C0 15.4258 0.557619 15.9838 1.25201 16.0049H14.719C15.424 16.0049 16.0026 15.4258 16.0026 14.7203V1.2846C15.9921 0.579125 15.4134 0 14.7085 0Z" fill="url(#paint0_linear_2_549)"/>
<path d="M14.7085 0H11.7942C11.0893 0 10.5106 0.579125 10.5106 1.2846V5.05418H6.29163C5.60775 5.05418 5.05014 5.61225 5.05014 6.30719V10.5295H1.25201C0.557619 10.5295 0 11.0876 0 11.7826V14.7308C0 15.4258 0.557619 15.9838 1.25201 16.0049H14.719C15.424 16.0049 16.0026 15.4258 16.0026 14.7203V1.2846C15.9921 0.579125 15.4134 0 14.7085 0Z" fill="url(#paint1_linear_2_549)"/>
<path d="M14.7092 0.000183105H11.8159C11.111 0.000183105 10.5323 0.579308 10.5323 1.28479V16.0051H14.7092C15.4141 16.0051 15.9928 15.426 15.9928 14.7205V1.28479C15.9928 0.579308 15.4141 0.000183105 14.7092 0.000183105Z" fill="#F57C00"/>
<path d="M5.05038 6.31787V10.5297H1.26278C0.568385 10.5297 0.000244141 11.0983 0.000244141 11.7932V14.7415C0.000244141 15.4364 0.568385 16.005 1.26278 16.005H10.5214V5.05432H6.31292C5.61852 5.05432 5.05038 5.62292 5.05038 6.31787Z" fill="#FFC107"/>
<path d="M10.5214 5.05432V16.005H14.6982C15.4032 16.005 15.9818 15.4259 15.9818 14.7204V10.5297L10.5214 5.05432Z" fill="url(#paint2_linear_2_549)"/>
<path opacity="0.2" d="M6.31246 5.15931H10.5209V5.05402H6.31246C5.61807 5.05402 5.04993 5.62261 5.04993 6.31756V6.42286C5.04993 5.72791 5.61807 5.15931 6.31246 5.15931Z" fill="white"/>
<path opacity="0.2" d="M1.26278 10.6348H5.05038V10.5295H1.26278C0.568384 10.5295 0.000244141 11.0981 0.000244141 11.793V11.8983C0.000244141 11.2034 0.568384 10.6348 1.26278 10.6348Z" fill="white"/>
<path opacity="0.2" d="M14.7088 15.8993H1.26278C0.568384 15.8993 0.000244141 15.3307 0.000244141 14.6357V14.741C0.000244141 15.436 0.568384 16.0046 1.26278 16.0046H14.6982C15.4032 16.0046 15.9818 15.4255 15.9818 14.72V14.6147C15.9923 15.3202 15.4137 15.8993 14.7088 15.8993Z" fill="#BF360C"/>
<path d="M14.7085 0H11.8152C11.1103 0 10.5316 0.579125 10.5316 1.2846V5.05418H6.32319C5.6288 5.05418 5.06066 5.62277 5.06066 6.31772V10.5295H1.26253C0.56814 10.5295 0 11.0981 0 11.7931V14.7414C0 15.4363 0.56814 16.0049 1.26253 16.0049H14.7085C15.4134 16.0049 15.9921 15.4258 15.9921 14.7203V1.2846C15.9921 0.579125 15.4134 0 14.7085 0Z" fill="url(#paint3_linear_2_549)"/>
<defs>
<linearGradient id="paint0_linear_2_549" x1="0" y1="8.00245" x2="16.0026" y2="8.00245" gradientUnits="userSpaceOnUse">
<stop stop-color="white" stop-opacity="0.1"/>
<stop offset="1" stop-color="white" stop-opacity="0"/>
</linearGradient>
<linearGradient id="paint1_linear_2_549" x1="0" y1="8.00245" x2="16.0026" y2="8.00245" gradientUnits="userSpaceOnUse">
<stop stop-color="white" stop-opacity="0.1"/>
<stop offset="1" stop-color="white" stop-opacity="0"/>
</linearGradient>
<linearGradient id="paint2_linear_2_549" x1="7.81217" y1="7.81832" x2="15.6156" y2="15.6155" gradientUnits="userSpaceOnUse">
<stop stop-color="#BF360C" stop-opacity="0.2"/>
<stop offset="1" stop-color="#BF360C" stop-opacity="0.02"/>
</linearGradient>
<linearGradient id="paint3_linear_2_549" x1="5.36251" y1="5.37333" x2="15.7158" y2="15.7183" gradientUnits="userSpaceOnUse">
<stop stop-color="white" stop-opacity="0.1"/>
<stop offset="1" stop-color="white" stop-opacity="0"/>
</linearGradient>
</defs>
</svg>
