<svg width="17" height="17" viewBox="0 0 17 17" fill="none" xmlns="http://www.w3.org/2000/svg">
<path d="M4.31076 16.9399C3.29976 16.8939 2.75056 16.7257 2.38526 16.5832C1.90124 16.3947 1.55616 16.1704 1.19289 15.8076C0.829613 15.4449 0.604779 15.0998 0.417333 14.6157C0.274854 14.2505 0.106607 13.7013 0.0606295 12.6903C0.0101049 11.5974 0 11.2695 0 8.50076C0 5.73201 0.0111154 5.40461 0.0601242 4.31076C0.106102 3.29976 0.275359 2.75157 0.416828 2.38526C0.605284 1.90124 0.830119 1.55616 1.19238 1.19238C1.55515 0.829613 1.90023 0.604274 2.38476 0.416828C2.75005 0.274348 3.29925 0.106102 4.31025 0.0601242C5.4036 0.0101049 5.73201 0 8.49975 0C11.2685 0 11.5959 0.0111154 12.6898 0.0601242C13.7007 0.106102 14.2489 0.275359 14.6152 0.416828C15.0993 0.604274 15.4443 0.829613 15.8076 1.19238C16.1709 1.55515 16.3947 1.90073 16.5832 2.38476C16.7257 2.75005 16.8939 3.29925 16.9399 4.31025C16.9899 5.40411 17 5.73151 17 8.50025C17 11.268 16.9899 11.5964 16.9399 12.6903C16.8939 13.7013 16.7246 14.2505 16.5832 14.6157C16.3947 15.0998 16.1704 15.4449 15.8076 15.8076C15.4449 16.1704 15.0993 16.3947 14.6152 16.5832C14.2499 16.7257 13.7007 16.8939 12.6898 16.9399C11.5969 16.9899 11.2685 17 8.49975 17C5.73201 17 5.4036 16.9904 4.31076 16.9399Z" fill="url(#paint0_radial_2_563)"/>
<path d="M4.31076 16.9399C3.29976 16.8939 2.75056 16.7257 2.38526 16.5832C1.90124 16.3947 1.55616 16.1704 1.19289 15.8076C0.829613 15.4449 0.604779 15.0998 0.417333 14.6157C0.274854 14.2505 0.106607 13.7013 0.0606295 12.6903C0.0101049 11.5974 0 11.2695 0 8.50076C0 5.73201 0.0111154 5.40461 0.0601242 4.31076C0.106102 3.29976 0.275359 2.75157 0.416828 2.38526C0.605284 1.90124 0.830119 1.55616 1.19238 1.19238C1.55515 0.829613 1.90023 0.604274 2.38476 0.416828C2.75005 0.274348 3.29925 0.106102 4.31025 0.0601242C5.4036 0.0101049 5.73201 0 8.49975 0C11.2685 0 11.5959 0.0111154 12.6898 0.0601242C13.7007 0.106102 14.2489 0.275359 14.6152 0.416828C15.0993 0.604274 15.4443 0.829613 15.8076 1.19238C16.1709 1.55515 16.3947 1.90073 16.5832 2.38476C16.7257 2.75005 16.8939 3.29925 16.9399 4.31025C16.9899 5.40411 17 5.73151 17 8.50025C17 11.268 16.9899 11.5964 16.9399 12.6903C16.8939 13.7013 16.7246 14.2505 16.5832 14.6157C16.3947 15.0998 16.1704 15.4449 15.8076 15.8076C15.4449 16.1704 15.0993 16.3947 14.6152 16.5832C14.2499 16.7257 13.7007 16.8939 12.6898 16.9399C11.5969 16.9899 11.2685 17 8.49975 17C5.73201 17 5.4036 16.9904 4.31076 16.9399Z" fill="url(#paint1_radial_2_563)"/>
<path d="M6.41323 8.53658C6.41323 7.37396 7.35546 6.43122 8.51809 6.43122C9.68071 6.43122 10.6234 7.37396 10.6234 8.53658C10.6234 9.6992 9.68071 10.6419 8.51809 10.6419C7.35546 10.6419 6.41323 9.6992 6.41323 8.53658ZM5.27512 8.53658C5.27512 10.3277 6.72699 11.7795 8.51809 11.7795C10.3092 11.7795 11.7611 10.3277 11.7611 8.53658C11.7611 6.74548 10.3092 5.29361 8.51809 5.29361C6.72699 5.29361 5.27517 6.74538 5.27517 8.53658H5.27512ZM11.1316 5.16502C11.1316 5.31492 11.176 5.46146 11.2592 5.58612C11.3424 5.71079 11.4607 5.80797 11.5992 5.86539C11.7376 5.92281 11.89 5.93788 12.037 5.90869C12.1841 5.87951 12.3191 5.80738 12.4252 5.70143C12.5312 5.59549 12.6034 5.46048 12.6327 5.31348C12.662 5.16648 12.6471 5.01409 12.5898 4.87558C12.5325 4.73708 12.4354 4.61868 12.3108 4.53535C12.1862 4.45203 12.0397 4.40752 11.8898 4.40746H11.8895C11.6886 4.40755 11.4959 4.48739 11.3538 4.62943C11.2117 4.77147 11.1318 4.96411 11.1316 5.16502ZM5.96659 13.6774C5.35085 13.6493 5.01618 13.5467 4.79377 13.4601C4.49891 13.3453 4.28852 13.2086 4.06733 12.9877C3.84613 12.7668 3.70921 12.5566 3.59492 12.2618C3.50822 12.0394 3.40566 11.7047 3.37767 11.0889C3.34705 10.4232 3.34093 10.2232 3.34093 8.53668C3.34093 6.85012 3.34755 6.6507 3.37767 5.98443C3.40571 5.36869 3.50903 5.03457 3.59492 4.8116C3.70971 4.51674 3.84643 4.30636 4.06733 4.08516C4.28822 3.86397 4.4984 3.72704 4.79377 3.61276C5.01608 3.52606 5.35085 3.42349 5.96659 3.3955C6.63231 3.36488 6.83228 3.35877 8.51809 3.35877C10.2039 3.35877 10.4041 3.36529 11.0703 3.3956C11.6861 3.42364 12.0202 3.52697 12.2432 3.61286C12.538 3.72715 12.7484 3.86437 12.9696 4.08526C13.1908 4.30616 13.3272 4.51684 13.442 4.81171C13.5287 5.03401 13.6313 5.36879 13.6593 5.98453C13.6899 6.6508 13.696 6.85022 13.696 8.53678C13.696 10.2233 13.6899 10.4228 13.6593 11.089C13.6312 11.7048 13.5282 12.0394 13.442 12.2619C13.3272 12.5567 13.1905 12.7671 12.9696 12.9878C12.7487 13.2085 12.538 13.3454 12.2432 13.4602C12.0209 13.5469 11.6861 13.6495 11.0703 13.6775C10.4046 13.7081 10.2046 13.7142 8.51809 13.7142C6.83152 13.7142 6.6321 13.7081 5.96659 13.6775V13.6774ZM5.9143 2.25926C5.24197 2.28987 4.78255 2.39648 4.38134 2.5526C3.96607 2.71382 3.61407 2.93012 3.26257 3.28106C2.91107 3.63201 2.69533 3.98406 2.53411 4.39983C2.37799 4.8013 2.27138 5.26046 2.24076 5.9328C2.20964 6.60619 2.20251 6.82147 2.20251 8.53658C2.20251 10.2517 2.20964 10.467 2.24076 11.1404C2.27138 11.8127 2.37799 12.2719 2.53411 12.6733C2.69533 13.0886 2.91112 13.4413 3.26257 13.7921C3.61402 14.1429 3.96557 14.3589 4.38134 14.5206C4.78331 14.6767 5.24197 14.7833 5.9143 14.8139C6.58805 14.8445 6.80298 14.8521 8.51809 14.8521C10.2332 14.8521 10.4485 14.845 11.1219 14.8139C11.7942 14.7833 12.2534 14.6767 12.6548 14.5206C13.0701 14.3589 13.4221 14.143 13.7736 13.7921C14.1251 13.4411 14.3404 13.0886 14.5021 12.6733C14.6582 12.2719 14.7653 11.8127 14.7954 11.1404C14.826 10.4665 14.8332 10.2517 14.8332 8.53658C14.8332 6.82147 14.826 6.60619 14.7954 5.9328C14.7648 5.26041 14.6582 4.80104 14.5021 4.39983C14.3404 3.98457 14.1245 3.63256 13.7736 3.28106C13.4227 2.92956 13.0701 2.71382 12.6553 2.5526C12.2534 2.39648 11.7942 2.28937 11.1224 2.25926C10.4489 2.22849 10.2337 2.22101 8.51884 2.22101C6.80399 2.22101 6.5883 2.22813 5.91455 2.25926" fill="white"/>
<defs>
<radialGradient id="paint0_radial_2_563" cx="0" cy="0" r="1" gradientUnits="userSpaceOnUse" gradientTransform="translate(1.10022 16.6276) scale(21.5837)">
<stop offset="0.09" stop-color="#FA8F21"/>
<stop offset="0.78" stop-color="#D82D7E"/>
</radialGradient>
<radialGradient id="paint1_radial_2_563" cx="0" cy="0" r="1" gradientUnits="userSpaceOnUse" gradientTransform="translate(11.7753 16.0817) scale(18.9939)">
<stop offset="0.64" stop-color="#8C3AAA" stop-opacity="0"/>
<stop offset="1" stop-color="#8C3AAA"/>
</radialGradient>
</defs>
</svg>
