<svg width="23" height="23" viewBox="0 0 23 23" fill="none" xmlns="http://www.w3.org/2000/svg">
<path d="M10.5799 16.56C7.26793 16.56 4.59993 13.892 4.59993 10.58C4.59993 7.26801 7.26793 4.60001 10.5799 4.60001C13.8919 4.60001 16.5599 7.26801 16.5599 10.58C16.5599 13.892 13.8919 16.56 10.5799 16.56ZM10.5799 5.52001C7.77393 5.52001 5.51993 7.77401 5.51993 10.58C5.51993 13.386 7.77393 15.64 10.5799 15.64C13.3859 15.64 15.6399 13.386 15.6399 10.58C15.6399 7.77401 13.3859 5.52001 10.5799 5.52001Z" fill="#818181"/>
<path d="M15.0337 14.3829L19.1645 18.5136L18.514 19.1641L14.3832 15.0333L15.0337 14.3829Z" fill="#818181"/>
</svg>
