<svg width="15" height="17" viewBox="0 0 15 17" fill="none" xmlns="http://www.w3.org/2000/svg">
<path d="M6.51823 0.526414C6.6336 0.526414 6.69128 0.584798 6.80665 0.643182C6.11445 0.935102 5.42225 1.6941 5.07615 3.32885L3.80711 3.67915C4.21089 2.51147 5.01846 0.526414 6.51823 0.526414ZM7.15275 1.11025C7.26812 1.46056 7.38348 1.86925 7.38348 2.51147C7.38348 2.56986 7.38348 2.56986 7.38348 2.62824L5.71066 3.09531C6.05676 1.86925 6.6336 1.34379 7.15275 1.11025ZM8.65252 2.16117L7.90264 2.3947C7.90264 2.33632 7.90264 2.27794 7.90264 2.21955C7.90264 1.6941 7.84495 1.28541 7.72958 0.935102C8.13337 1.05187 8.47947 1.57733 8.65252 2.16117ZM12.4019 3.09531C12.4019 3.03693 12.3443 2.97854 12.2866 2.97854C12.1712 2.97854 10.9599 2.86178 10.9599 2.86178C10.9599 2.86178 10.0946 1.98602 9.97924 1.92763C9.86387 1.81086 9.69082 1.86925 9.63314 1.86925C9.63314 1.86925 9.46009 1.92763 9.17167 2.0444C8.88325 1.22702 8.3641 0.46803 7.49885 0.46803H7.44117C7.21043 0.117725 6.86433 0.000957075 6.57592 0.000957075C4.49931 -0.057427 3.51869 2.56986 3.17259 3.91269C2.71112 4.02946 2.24966 4.20461 1.7305 4.37976C1.26904 4.49653 1.26904 4.55491 1.21135 4.9636C1.15367 5.25552 0 14.4802 0 14.4802L9.17167 16.2317L14.1325 15.1224C14.1325 15.1224 12.4019 3.21208 12.4019 3.09531Z" fill="#8DB849"/>
<path d="M12.2295 2.97801C12.1718 2.97801 10.9604 2.86124 10.9604 2.86124C10.9604 2.86124 10.0952 1.98548 9.97981 1.9271C9.92213 1.86871 9.92213 1.86871 9.86444 1.86871L9.17224 16.2312L14.133 15.1219C14.133 15.1219 12.4025 3.21155 12.4025 3.09478C12.4025 3.03639 12.2871 2.97801 12.2295 2.97801Z" fill="#5A863E"/>
<path d="M7.49994 5.77977L6.86542 7.64806C6.86542 7.64806 6.34627 7.35614 5.65407 7.35614C4.67345 7.35614 4.61576 7.93998 4.61576 8.11513C4.61576 8.93251 6.80774 9.28281 6.80774 11.2679C6.80774 12.8442 5.82712 13.8368 4.5004 13.8368C2.94294 13.8368 2.13538 12.8442 2.13538 12.8442L2.53916 11.443C2.53916 11.443 3.34673 12.1436 4.03893 12.1436C4.5004 12.1436 4.67345 11.7933 4.67345 11.5014C4.67345 10.3921 2.88526 10.3337 2.88526 8.52382C2.88526 7.00583 3.98125 5.54623 6.11554 5.54623C7.09615 5.48785 7.49994 5.77977 7.49994 5.77977Z" fill="#FFFFFE"/>
</svg>
