<?xml version="1.0" standalone="no"?>
<!DOCTYPE svg PUBLIC "-//W3C//DTD SVG 20010904//EN"
 "http://www.w3.org/TR/2001/REC-SVG-20010904/DTD/svg10.dtd">
<svg version="1.0" xmlns="http://www.w3.org/2000/svg"
 width="120.000000pt" height="120.000000pt" viewBox="0 0 120.000000 120.000000"
 preserveAspectRatio="xMidYMid meet">
<metadata>
Created by potrace 1.16, written by Peter Selinger 2001-2019
</metadata>
<g transform="translate(0.000000,120.000000) scale(0.100000,-0.100000)"
fill="#000000" stroke="none">
<path d="M511 1190 c-370 -57 -599 -445 -470 -796 35 -97 150 -254 176 -243 4
2 57 30 116 63 76 41 111 66 118 83 17 45 10 91 -21 140 -16 26 -30 52 -30 58
0 5 -9 27 -20 48 -22 40 -29 160 -10 172 6 3 10 45 10 93 0 113 16 147 90 185
112 57 286 24 332 -63 13 -26 18 -57 18 -122 0 -48 5 -90 10 -93 6 -3 10 -37
10 -75 0 -55 -4 -73 -19 -87 -10 -10 -29 -38 -41 -63 -12 -25 -31 -57 -41 -72
-21 -29 -25 -97 -9 -128 6 -11 67 -48 135 -83 l125 -64 39 42 c63 68 108 144
137 230 39 114 39 256 0 370 -45 132 -120 232 -234 309 -116 79 -285 117 -421
96z"/>
</g>
</svg>
