<svg width="23" height="23" viewBox="0 0 23 23" fill="none" xmlns="http://www.w3.org/2000/svg">
<mask id="mask0_2_354" style="mask-type:alpha" maskUnits="userSpaceOnUse" x="-4" y="-5" width="32" height="32">
<path d="M11.9599 26.68C20.5977 26.68 27.5999 19.6777 27.5999 11.04C27.5999 2.40227 20.5977 -4.6 11.9599 -4.6C3.32221 -4.6 -3.68005 2.40227 -3.68005 11.04C-3.68005 19.6777 3.32221 26.68 11.9599 26.68Z" fill="#EFEFEF"/>
</mask>
<g mask="url(#mask0_2_354)">
<path d="M11.9599 26.68C20.5977 26.68 27.5999 19.6777 27.5999 11.04C27.5999 2.40227 20.5977 -4.6 11.9599 -4.6C3.32221 -4.6 -3.68005 2.40227 -3.68005 11.04C-3.68005 19.6777 3.32221 26.68 11.9599 26.68Z" fill="#EFEFEF"/>
<path fill-rule="evenodd" clip-rule="evenodd" d="M24.2852 25.1608C24.2314 25.1072 24.1507 25.0268 24.0699 24.9732C23.5048 24.5174 22.5091 24.0616 21.3788 23.6058C21.1366 23.4985 20.114 23.1232 18.9838 22.6674C18.2303 22.3725 17.4498 22.0507 16.804 21.7826L15.4315 21.1124C15.4046 21.0319 15.3777 20.9247 15.3508 20.8174C15.3239 20.7102 15.3239 20.5761 15.297 20.4689V20.4421C15.297 20.3885 15.297 20.3348 15.297 20.2812C15.297 20.2544 15.297 20.2276 15.297 20.2276C15.297 20.174 15.297 20.1472 15.297 20.0935C15.297 20.0667 15.297 20.0131 15.297 19.9863C15.297 19.9595 15.297 19.9327 15.297 19.9059C15.297 19.8522 15.297 19.8254 15.297 19.7718C15.297 19.6914 15.297 19.6109 15.297 19.5305C15.3239 19.2892 15.3508 19.0747 15.3777 18.8871C16.8309 17.3052 17.4229 15.6697 17.6651 13.8734C18.015 13.9002 18.607 13.8466 19.0914 13.2835C19.7104 12.5596 20.7599 9.55681 19.1183 9.07421C20.4101 1.91566 16.4541 -1.35528 9.32275 -0.577763C9.32275 -0.577763 5.31301 0.146133 5.44757 3.73881C5.44757 3.73881 4.12894 3.89968 4.39804 6.47354C4.47878 7.38511 4.64024 8.26987 4.80171 9.02058C2.89103 9.34232 3.99438 12.5328 4.64024 13.2835C5.12464 13.8466 5.74359 13.9002 6.09343 13.8734C6.36254 15.6965 6.92767 17.332 8.40777 18.9139C8.46159 18.9675 8.4885 19.0211 8.54233 19.0479C8.56924 19.316 8.59615 19.5037 8.59615 19.5305C8.59615 19.6378 8.62306 19.7718 8.62306 19.8791C8.62306 19.9863 8.62306 20.0935 8.62306 20.2008C8.62306 20.2276 8.62306 20.2276 8.62306 20.2544C8.62306 20.3617 8.62306 20.4689 8.59615 20.5493C8.59615 20.5761 8.59615 20.5761 8.59615 20.603C8.59615 20.7102 8.56924 20.7906 8.56924 20.8711V20.8979C8.54233 20.9783 8.51542 21.0587 8.48851 21.1392C8.43468 21.3 6.57783 22.0507 4.93626 22.721C3.806 23.1768 2.8103 23.5522 2.54119 23.6594C1.41093 24.1152 0.388318 24.571 -0.149901 25.0268C-0.230634 25.0804 -0.311367 25.1608 -0.365189 25.2144C-0.903408 25.8043 -1.33398 26.8499 -1.33398 28.2441C1.43784 28.2441 3.85982 28.2441 6.12034 28.2441C6.4971 28.2441 6.90076 28.2441 7.27751 28.2441C10.5068 28.2441 13.4401 28.2441 16.6425 28.2441C17.0193 28.2441 17.396 28.2441 17.7997 28.2441C20.0602 28.2441 22.4822 28.2441 25.254 28.2441C25.254 26.7963 24.8504 25.7507 24.2852 25.1608ZM5.63595 8.94015C5.63595 8.67204 5.63595 8.40393 5.63595 8.10901C5.63595 8.37712 5.66286 8.67204 5.68977 8.94015C5.66286 8.94015 5.66286 8.94015 5.63595 8.94015Z" fill="#CDCFD1"/>
</g>
</svg>
