<svg width="18" height="11" viewBox="0 0 18 11" fill="none" xmlns="http://www.w3.org/2000/svg">
<g clip-path="url(#clip0_2_567)">
<path d="M1.62236 0.022644H15.7893C16.6859 0.022644 17.4117 0.747885 17.4117 1.64386V7.04774C17.4117 7.94371 16.6859 8.66895 15.7893 8.66895H10.7089L11.4062 10.3754L8.3394 8.66895H1.62944C0.732892 8.66895 0.0071323 7.94371 0.0071323 7.04774V1.64386C-6.32461e-06 0.755019 0.725686 0.022644 1.62236 0.022644Z" fill="#9B5C8F"/>
<path d="M0.998474 1.50017C1.09753 1.36579 1.24608 1.29513 1.4442 1.281C1.80507 1.25267 2.01025 1.42231 2.05975 1.78999C2.27907 3.26765 2.51961 4.51907 2.77429 5.54419L4.32371 2.59601C4.46526 2.32732 4.64216 2.18594 4.85442 2.17181C5.16573 2.15061 5.3567 2.34851 5.43455 2.76565C5.61145 3.70592 5.83785 4.50488 6.10667 5.18358C6.29064 3.38783 6.60195 2.09402 7.0406 1.29513C7.14666 1.09716 7.30235 0.998172 7.50754 0.983973C7.6703 0.96991 7.81885 1.01937 7.95326 1.12542C8.08767 1.23147 8.15844 1.36579 8.17258 1.52843C8.17965 1.65568 8.15844 1.76173 8.10188 1.86778C7.82592 2.37684 7.59945 3.23232 7.41555 4.42002C7.23872 5.57246 7.17501 6.4704 7.21744 7.11377C7.23165 7.29041 7.2033 7.44599 7.13259 7.58037C7.04761 7.73588 6.92033 7.82074 6.75757 7.83487C6.5736 7.849 6.38263 7.76421 6.19865 7.57331C5.54068 6.9016 5.01711 5.89768 4.63509 4.56147C4.17516 5.46641 3.83557 6.14511 3.61624 6.59758C3.1988 7.39653 2.84507 7.80661 2.54789 7.8278C2.35685 7.84194 2.19416 7.67929 2.05268 7.34001C1.69187 6.4138 1.30271 4.62506 0.885344 1.97383C0.856993 1.78999 0.899417 1.62735 0.998474 1.50017ZM16.2028 2.61014C15.9481 2.16474 15.5731 1.89611 15.0708 1.78999C14.9363 1.76173 14.8091 1.7476 14.6887 1.7476C14.0095 1.7476 13.4577 2.10108 13.0261 2.80812C12.6582 3.40903 12.4742 4.0736 12.4742 4.80183C12.4742 5.34622 12.5874 5.81282 12.8138 6.2017C13.0685 6.64711 13.4435 6.91573 13.9458 7.02178C14.0802 7.05012 14.2076 7.06425 14.3279 7.06425C15.0142 7.06425 15.566 6.71076 15.9905 6.00373C16.3584 5.39568 16.5424 4.73111 16.5424 4.00295C16.5494 3.45149 16.4292 2.99189 16.2028 2.61014ZM15.3113 4.56853C15.2123 5.03513 15.0354 5.38155 14.7736 5.61485C14.5684 5.79869 14.3774 5.87641 14.2006 5.84108C14.0307 5.80576 13.8892 5.65731 13.7831 5.38155C13.6981 5.16238 13.6558 4.94321 13.6558 4.73818C13.6558 4.56147 13.6699 4.38469 13.7053 4.22212C13.769 3.93222 13.8893 3.6494 14.0802 3.38077C14.3138 3.03428 14.5614 2.89297 14.8161 2.94243C14.9859 2.97776 15.1274 3.12627 15.2335 3.40196C15.3184 3.62113 15.3608 3.8403 15.3608 4.04534C15.3608 4.22918 15.3467 4.40589 15.3113 4.56847V4.56853ZM11.7738 2.61014C11.5191 2.16474 11.137 1.89611 10.6418 1.78999C10.5074 1.76173 10.38 1.7476 10.2597 1.7476C9.58052 1.7476 9.02868 2.10108 8.59709 2.80812C8.22922 3.40903 8.04524 4.0736 8.04524 4.80183C8.04524 5.34622 8.15844 5.81282 8.38484 6.2017C8.63952 6.64711 9.01453 6.91573 9.51682 7.02178C9.6513 7.05012 9.77857 7.06425 9.89891 7.06425C10.5852 7.06425 11.137 6.71076 11.5615 6.00373C11.9295 5.39568 12.1134 4.73111 12.1134 4.00295C12.1134 3.45149 12.0002 2.99189 11.7738 2.61014ZM10.8753 4.56853C10.7762 5.03513 10.5993 5.38155 10.3376 5.61485C10.1324 5.79869 9.94133 5.87641 9.76443 5.84108C9.59467 5.80576 9.45318 5.65731 9.34699 5.38155C9.26214 5.16238 9.21972 4.94321 9.21972 4.73818C9.21972 4.56147 9.23386 4.38469 9.26921 4.22212C9.33292 3.93222 9.45318 3.6494 9.64423 3.38077C9.87769 3.03428 10.1253 2.89297 10.38 2.94243C10.5498 2.97776 10.6914 3.12627 10.7974 3.40196C10.8824 3.62113 10.9248 3.8403 10.9248 4.04534C10.9319 4.22918 10.9106 4.40589 10.8753 4.56847V4.56853Z" fill="white"/>
</g>
<defs>
<clipPath id="clip0_2_567">
<rect width="17.4117" height="10.3978" fill="white"/>
</clipPath>
</defs>
</svg>
